HIERARCHY
ROOT Hips
{
	OFFSET 0.000000 0.000000 0.000000
	CHANNELS 6 Xposition Yposition Zposition Zrotation Yrotation Xrotation 
	JOINT LHipJoint
	{
		OFFSET 0.000000 0.000000 0.000000
		CHANNELS 3 Zrotation Yrotation Xrotation
		JOINT LeftUpLeg
		{
			OFFSET 1.363060 -1.794630 0.839290
			CHANNELS 3 Zrotation Yrotation Xrotation
			JOINT LeftLeg
			{
				OFFSET 2.448110 -6.726130 0.000000
				CHANNELS 3 Zrotation Yrotation Xrotation
				JOINT LeftFoot
				{
					OFFSET 2.562200 -7.039590 0.000000
					CHANNELS 3 Zrotation Yrotation Xrotation
					JOINT LeftToeBase
					{
						OFFSET 0.157640 -0.433110 2.322550
						CHANNELS 3 Zrotation Yrotation Xrotation
						End Site
						{
							OFFSET 0.000000 0.000000 0.000000
						}
					}
				}
			}
		}
	}
	JOINT RHipJoint
	{
		OFFSET 0.000000 0.000000 0.000000
		CHANNELS 3 Zrotation Yrotation Xrotation
		JOINT RightUpLeg
		{
			OFFSET -1.305520 -1.794630 0.839290
			CHANNELS 3 Zrotation Yrotation Xrotation
			JOINT RightLeg
			{
				OFFSET -2.542530 -6.985550 0.000000
				CHANNELS 3 Zrotation Yrotation Xrotation
				JOINT RightFoot
				{
					OFFSET -2.568260 -7.056230 0.000000
					CHANNELS 3 Zrotation Yrotation Xrotation
					JOINT RightToeBase
					{
						OFFSET -0.164730 -0.452590 2.363150
						CHANNELS 3 Zrotation Yrotation Xrotation
						End Site
						{
							OFFSET 0.000000 0.000000 0.000000
						}
					}
				}
			}
		}
	}
}
MOTION
Frames: 22
Frame Time: 0.008333
-2.984345 17.150713 0.308599 -94.202114 87.630613 -75.722355 -9.365783 1.370214 2.018945 -23.161069 5.214033 -38.410371 -3.838749 -0.864450 13.031174 1.131414 4.247792 -8.213937 0.126899 -0.000000 -28.162700 9.421825 -4.670521 0.166869 9.454523 -8.543868 -3.014741 2.482334 -1.189885 16.438277 0.888460 8.871887 10.763846 2.311800 0.000000 -77.161300
-2.795072 17.094979 0.296691 -95.161471 87.286046 -76.891075 -9.324141 1.394944 2.145130 -22.833836 4.771289 -38.532106 -3.705991 -0.764215 14.256258 1.271373 4.792942 -8.863122 0.057300 -0.000001 -23.103800 9.543161 -4.775218 0.079484 9.296123 -9.334071 -3.063736 2.426667 -1.336429 17.943495 0.929479 9.887700 11.234508 2.688300 -0.000000 -79.069801
-2.606418 17.041372 0.286027 -95.630442 87.013223 -77.573387 -9.263494 1.424679 2.272702 -22.449802 4.198736 -38.699756 -3.546734 -0.619026 15.983782 1.443390 5.419581 -9.762951 -0.059800 -0.000000 -17.749800 9.713903 -4.862362 -0.021859 8.967567 -10.235363 -3.263207 2.345605 -1.493460 19.660965 0.968816 11.152514 11.837349 3.177600 0.000000 -80.854400
-2.419312 16.990878 0.275628 -95.611089 86.807617 -77.784307 -9.192286 1.457975 2.383363 -22.050744 3.580385 -38.883443 -3.371662 -0.438127 18.104665 1.628384 6.056155 -10.834996 -0.224000 0.000000 -12.607000 9.926063 -4.928925 -0.137573 8.477157 -11.221744 -3.590773 2.236411 -1.657463 21.576233 0.996472 12.637470 12.615569 3.793900 -0.000000 -82.398300
-2.234628 16.944439 0.264658 -95.003820 86.668575 -77.435502 -9.114182 1.496858 2.465145 -21.679828 2.980571 -39.024135 -3.192327 -0.237230 20.449132 1.811208 6.664728 -11.987089 -0.425500 0.000000 -8.138300 10.174258 -4.968244 -0.270111 7.827706 -12.269344 -4.025058 2.096296 -1.823766 23.674660 1.001727 14.295069 13.598035 4.550500 0.000000 -83.591200
-2.052974 16.903095 0.251909 -93.770017 86.577097 -76.486159 -9.037238 1.540729 2.512552 -21.354548 2.453637 -39.077179 -3.019431 -0.033479 22.839314 1.980365 7.217548 -13.150761 -0.652000 0.000000 -4.625800 10.440667 -4.976794 -0.413116 7.067108 -13.309217 -4.538476 1.926549 -1.985740 25.909700 0.975073 16.009507 14.795427 5.438100 0.000000 -84.329200
-1.874826 16.867676 0.237312 -91.662723 86.546064 -74.690887 -8.951365 1.601643 2.528259 -21.126700 2.013961 -38.970278 -2.867071 0.155276 25.073695 2.135241 7.729866 -14.279074 -0.892900 0.000000 -2.130499 10.726702 -4.941754 -0.571035 6.180124 -14.333229 -5.129397 1.726418 -2.137941 28.277998 0.912424 17.703657 16.185505 6.448500 -0.000000 -84.541300
-1.700222 16.838934 0.219806 -88.647476 86.546968 -71.998155 -8.864664 1.679945 2.517826 -20.990423 1.685140 -38.696362 -2.743249 0.318676 27.022913 2.274979 8.195618 -15.359523 -1.141400 0.000000 -0.586100 11.007762 -4.862870 -0.732004 5.241778 -15.264161 -5.786645 1.502577 -2.275215 30.729513 0.815093 19.207781 17.729912 7.521800 -0.000001 -84.177300
-1.529076 16.817303 0.198925 -84.624943 86.566016 -68.296230 -8.780483 1.778724 2.489937 -20.947975 1.467056 -38.246479 -2.653515 0.450166 28.584631 2.403724 8.629527 -16.384627 178.606700 -0.000000 -0.135400 11.268039 -4.738253 -0.890729 4.293898 -16.067055 -6.513278 1.261012 -2.395235 33.240278 0.689822 20.379437 19.365278 8.574700 -0.000001 -83.244400
-1.361223 16.802853 0.174704 -79.388628 86.599171 -63.371584 -8.701119 1.901782 2.453728 -21.006016 1.344739 -37.611546 -2.600467 0.547143 29.688762 2.527190 9.055653 -17.343241 178.354100 -0.000001 -0.177400 11.496604 -4.564724 -1.046296 3.352168 -16.733092 -7.313722 1.006243 -2.497277 35.797343 0.544746 21.098282 21.018989 9.502800 -0.000001 -81.819000
-1.196177 16.795429 0.146050 -73.492216 86.616079 -57.761790 -8.652173 2.029086 2.415405 -21.114520 1.315144 -36.827373 -2.577080 0.607949 30.341462 2.643654 9.464370 -18.226666 -1.894200 -0.000000 -0.320100 11.663448 -4.362860 -1.188321 2.503119 -17.225256 -8.186540 0.749651 -2.586540 38.357334 0.387916 21.213766 22.612805 10.164900 0.000001 -80.037700
-1.033551 16.794565 0.113240 -67.257479 86.625586 -51.788764 -8.638390 2.150569 2.379091 -21.267117 1.351110 -35.890063 -2.577364 0.630411 30.545010 2.753898 9.866127 -19.011237 -2.132500 -0.000000 -1.197200 11.766299 -4.143151 -1.318660 1.747558 -17.565284 -9.129033 0.497418 -2.668548 40.903108 0.222513 20.662134 24.068819 10.451200 -0.000001 -78.086600
-0.872835 16.799606 0.076044 -61.625701 86.628312 -46.390389 -8.663506 2.245907 2.344727 -21.425022 1.434733 -34.819028 -2.590185 0.611954 30.351332 2.853222 10.244847 -19.675753 -2.352200 -0.000000 -2.278800 11.807869 -3.929142 -1.433533 1.124352 -17.761819 -10.131266 0.258877 -2.751905 43.398444 0.048461 19.396328 25.308046 10.270200 -0.000000 -76.142700
-0.713607 16.809858 0.034597 -57.366315 86.631447 -42.338199 -8.714524 2.307412 2.311209 -21.558308 1.546854 -33.629642 -2.606398 0.553764 29.824303 2.936999 10.583864 -20.200503 -2.543599 0.000000 -3.377500 11.808568 -3.733905 -1.531768 0.649135 -17.833306 -11.177180 0.038777 -2.841566 45.811796 -0.137011 17.431084 26.253587 9.584700 0.000000 -74.323500
-0.555325 16.824561 -0.011047 -55.189486 86.633026 -40.342308 -8.775271 2.335565 2.278428 -21.629107 1.674585 -32.353083 -2.618572 0.462061 29.046897 2.999707 10.859601 -20.573443 -2.696000 0.000000 -4.328000 11.791042 -3.564374 -1.610738 0.344909 -17.789531 -12.249029 -0.161027 -2.938478 48.110131 -0.336859 14.828641 26.833325 8.413500 -0.000000 -72.657100
-0.397674 16.842985 -0.060202 -55.074087 86.635278 -40.385642 -8.834358 2.341871 2.248142 -21.628811 1.800556 -31.012029 -2.624035 0.348075 28.091560 3.038172 11.061767 -20.784941 -2.801200 0.000000 -5.015200 11.769987 -3.413781 -1.672740 0.194497 -17.645405 -13.326430 -0.342298 -3.039231 50.270669 -0.552211 11.718479 26.984736 6.843900 -0.000000 -71.084800
-0.240350 16.864564 -0.112447 -57.016986 86.635911 -42.464809 -8.890038 2.332996 2.222449 -21.548648 1.909431 -29.638498 -2.620479 0.222861 27.035959 3.049301 11.178746 -20.832851 -2.853100 -0.000000 -5.404200 11.749647 -3.279932 -1.718613 0.187042 -17.410441 -14.395059 -0.504817 -3.141591 52.269226 -0.781507 8.268855 26.669716 5.011300 0.000000 -69.476600
-0.083160 16.888802 -0.167239 -60.932912 86.632299 -46.491159 -8.946232 2.312505 2.203814 -21.389711 1.985378 -28.265112 -2.606672 0.095930 25.951058 3.031522 11.203540 -20.721693 -2.849300 0.000001 -5.534700 11.727558 -3.163529 -1.748552 0.306147 -17.094217 -15.446662 -0.647104 -3.244376 54.082877 -1.020390 4.676492 25.886777 3.082101 0.000000 -67.729700
0.073960 16.915334 -0.224034 -66.646461 86.621091 -52.284976 -9.009238 2.282349 2.193950 -21.163580 2.014702 -26.918275 -2.582726 -0.025571 24.890843 2.985495 11.137055 -20.461502 -2.791900 0.000000 -5.498500 11.697924 -3.065802 -1.763028 0.526055 -16.707289 -16.477541 -0.767380 -3.347002 55.693859 -1.261684 1.145670 24.672719 1.226001 -0.000000 -65.727100
0.231008 16.943963 -0.282302 -73.960788 86.592659 -59.644604 -9.086360 2.243716 2.194063 -20.885586 1.989162 -25.620639 -2.549804 -0.136861 23.892458 2.913431 10.984001 -20.068607 -2.686900 0.000000 -5.412500 11.653193 -2.987948 -1.761678 0.821520 -16.257940 -17.487662 -0.864281 -3.448201 57.087579 -1.496637 -2.143620 23.104445 -0.415700 -0.000000 -63.437000
0.387852 16.974461 -0.341691 -82.568822 86.530627 -68.258519 -9.184568 2.198961 2.204993 -20.572191 1.907984 -24.389971 -2.510021 -0.235150 22.972928 2.819146 10.754594 -19.563330 -2.542900 0.000001 -5.395100 11.585635 -2.928463 -1.743636 1.168808 -15.751550 -18.480449 -0.937792 -3.544857 58.255266 -1.716171 -5.056225 21.289111 -1.751800 -0.000001 -60.917500
0.544317 17.006689 -0.401944 -91.994087 86.413628 -77.648377 -9.308479 2.152726 2.226743 -20.237924 1.778187 -23.235853 -2.466148 -0.319000 22.130573 2.707144 10.461721 -18.966829 -2.369700 0.000000 -5.550000 11.489936 -2.882395 -1.709361 1.546757 -15.194205 -19.459433 -0.989496 -3.632614 59.199260 -1.910660 -7.504580 19.328714 -2.742900 -0.000000 -58.088800
